<?xml version="1.0" encoding="UTF-8"?>
<svg xmlns="http://www.w3.org/2000/svg" xmlns:xlink="http://www.w3.org/1999/xlink" width="52pt" height="52pt" viewBox="0 0 52 52" version="1.1">
<g id="surface3114273">
<path style="fill-rule:nonzero;fill:rgb(0%,0%,0%);fill-opacity:1;stroke-width:4;stroke-linecap:butt;stroke-linejoin:round;stroke:rgb(80%,80%,80%);stroke-opacity:1;stroke-miterlimit:10;" d="M 217.31543 113 C 217.31543 170.511652 170.511652 217.31543 113 217.31543 C 55.488348 217.31543 8.68457 170.511652 8.68457 113 C 8.68457 55.488348 55.488348 8.68457 113 8.68457 C 170.511652 8.68457 217.31543 55.488348 217.31543 113 Z M 57.854443 45.62674 L 180.37326 168.145557 C 192.618234 153.171803 199.923768 133.914898 199.923768 113 C 199.923768 64.883645 161.116355 26.076232 113 26.076232 C 92.085102 26.076232 72.828197 33.381766 57.854443 45.62674 Z M 26.076232 113 C 26.076232 161.116355 64.883645 199.923768 113 199.923768 C 133.914898 199.923768 153.171803 192.618234 168.145557 180.37326 L 45.62674 57.854443 C 33.381766 72.828197 26.076232 92.085102 26.076232 113 Z M 26.076232 113 " transform="matrix(0.226177,0,0,0.226177,0.442,0.442)"/>
<path style=" stroke:none;fill-rule:nonzero;fill:rgb(90.588235%,29.803922%,23.529412%);fill-opacity:1;" d="M 26 2.40625 C 12.992188 2.40625 2.40625 12.992188 2.40625 26 C 2.40625 39.007812 12.992188 49.59375 26 49.59375 C 39.007812 49.59375 49.59375 39.007812 49.59375 26 C 49.59375 12.992188 39.007812 2.40625 26 2.40625 Z M 26 6.339844 C 36.882812 6.339844 45.660156 15.117188 45.660156 26 C 45.660156 30.730469 44.007812 35.085938 41.238281 38.472656 L 13.527344 10.761719 C 16.914062 7.992188 21.269531 6.339844 26 6.339844 Z M 10.761719 13.527344 L 38.472656 41.238281 C 35.085938 44.007812 30.730469 45.660156 26 45.660156 C 15.117188 45.660156 6.339844 36.882812 6.339844 26 C 6.339844 21.269531 7.992188 16.914062 10.761719 13.527344 Z M 10.761719 13.527344 "/>
</g>
</svg>
